<svg width="15" height="15" viewBox="0 0 15 15" fill="currrentColor" xmlns="http://www.w3.org/2000/svg">
<path d="M14.0625 6.56245H2.94375L6.34688 2.47495C6.50601 2.2835 6.58256 2.03667 6.55971 1.78877C6.53685 1.54088 6.41645 1.31221 6.225 1.15308C6.03355 0.993948 5.78672 0.91739 5.53882 0.940246C5.29092 0.963102 5.06225 1.0835 4.90312 1.27495L0.215625 6.89995C0.184088 6.94469 0.155887 6.9917 0.13125 7.04058C0.13125 7.08745 0.13125 7.11558 0.0656252 7.16245C0.0231316 7.26995 0.000882301 7.38437 0 7.49995C0.000882301 7.61554 0.0231316 7.72996 0.0656252 7.83745C0.0656252 7.88433 0.0656249 7.91245 0.13125 7.95933C0.155887 8.00821 0.184088 8.05521 0.215625 8.09995L4.90312 13.725C4.99127 13.8308 5.10165 13.9159 5.22642 13.9742C5.35118 14.0326 5.48727 14.0627 5.625 14.0625C5.84405 14.0629 6.05633 13.9866 6.225 13.8468C6.31993 13.7681 6.3984 13.6715 6.45592 13.5624C6.51344 13.4533 6.54887 13.334 6.56019 13.2112C6.57151 13.0884 6.5585 12.9646 6.52189 12.8468C6.48529 12.7291 6.42582 12.6197 6.34688 12.525L2.94375 8.43745H14.0625C14.3111 8.43745 14.5496 8.33868 14.7254 8.16287C14.9012 7.98705 15 7.74859 15 7.49995C15 7.25131 14.9012 7.01286 14.7254 6.83704C14.5496 6.66123 14.3111 6.56245 14.0625 6.56245Z" fill="currrentColor"/>
</svg>
